<?xml version="1.0"?>
<svg xmlns="http://www.w3.org/2000/svg" xmlns:xlink="http://www.w3.org/1999/xlink" xmlns:svgjs="http://svgjs.com/svgjs" version="1.1" width="512" height="512" x="0" y="0" viewBox="0 0 24 24" style="enable-background:new 0 0 512 512" xml:space="preserve" class=""><g><path xmlns="http://www.w3.org/2000/svg" d="m10 16c-.333 0-.646-.166-.832-.445l-1.703-2.555h-1.965c-.552 0-1-.448-1-1s.448-1 1-1h2.5c.334 0 .646.167.832.445l1.044 1.566 2.229-4.459c.164-.326.491-.538.856-.552.388-.009.708.172.896.484l2.709 4.516h1.934c.552 0 1 .448 1 1s-.448 1-1 1h-2.5c-.351 0-.677-.184-.857-.485l-2.063-3.438-2.185 4.371c-.16.319-.477.529-.833.551-.02.001-.041.001-.062.001z" fill="#096b67" data-original="#000000" style=""/><path xmlns="http://www.w3.org/2000/svg" d="m23 17h-1v-10c0-1.103-.897-2-2-2h-16c-1.103 0-2 .897-2 2v10h-1c-.552 0-1 .447-1 1s.448 1 1 1h22c.552 0 1-.447 1-1s-.448-1-1-1zm-19 0v-10h16v10z" fill="#096b67" data-original="#000000" style=""/></g></svg>
